<mxfile host="app.diagrams.net" modified="2024-05-05T14:52:59.800Z" agent="Mozilla/5.0 (Windows NT 10.0; Win64; x64) AppleWebKit/537.36 (KHTML, like Gecko) Chrome/123.0.0.0 Safari/537.36 Edg/123.0.0.0" version="24.3.1" etag="FzTIlyST-l4Xs7ZDJMuR" type="github">
  <diagram name="Page-1" id="95yd-aK2xn7owekbrXJo">
    <mxGraphModel>
      <root>
        <mxCell id="0" />
        <mxCell id="1" parent="0" />
      </root>
    </mxGraphModel>
  </diagram>
</mxfile>
